<svg width="64" height="64" viewBox="0 0 64 64" fill="none" xmlns="http://www.w3.org/2000/svg">
<path d="M20 14H33" stroke="#9B9B9B" stroke-width="4" stroke-linecap="round"/>
<path d="M40 14L45 14" stroke="#9B9B9B" stroke-width="4" stroke-linecap="round"/>
<path d="M20 25H39" stroke="#9B9B9B" stroke-width="4" stroke-linecap="round"/>
<path d="M47 56.9466L57.9541 57.024M52.085 51L52.0076 61.9541" stroke="black" stroke-width="4" stroke-linecap="round"/>
<path d="M19 54V45H22.82C23.4768 45 24.0515 45.1318 24.5441 45.3955C25.0367 45.6592 25.4199 46.0298 25.6936 46.5073C25.9672 46.9849 26.1041 47.543 26.1041 48.1816C26.1041 48.8262 25.9629 49.3843 25.6806 49.856C25.4012 50.3276 25.0079 50.6909 24.5009 50.9458C23.9968 51.2007 23.4076 51.3281 22.7335 51.3281H20.4519V49.4297H22.2496C22.5319 49.4297 22.7724 49.3799 22.9712 49.2803C23.1729 49.1777 23.327 49.0327 23.4336 48.8452C23.543 48.6577 23.5978 48.4365 23.5978 48.1816C23.5978 47.9238 23.543 47.7041 23.4336 47.5225C23.327 47.3379 23.1729 47.1973 22.9712 47.1006C22.7724 47.001 22.5319 46.9512 22.2496 46.9512H21.4026V54H19Z" fill="black"/>
<path d="M32.8244 54H29.4193V45H32.7899C33.7002 45 34.4867 45.1802 35.1493 45.5405C35.8147 45.8979 36.3275 46.4136 36.6876 47.0874C37.0506 47.7583 37.2321 48.5625 37.2321 49.5C37.2321 50.4375 37.052 51.2432 36.6919 51.917C36.3318 52.5879 35.8219 53.1035 35.1622 53.4639C34.5025 53.8213 33.7233 54 32.8244 54ZM31.8219 51.9258H32.738C33.1759 51.9258 33.549 51.854 33.8572 51.7104C34.1684 51.5669 34.4046 51.3193 34.5659 50.9678C34.7301 50.6162 34.8122 50.127 34.8122 49.5C34.8122 48.873 34.7287 48.3838 34.5616 48.0322C34.3974 47.6807 34.1554 47.4331 33.8356 47.2896C33.5187 47.146 33.1298 47.0742 32.6689 47.0742H31.8219V51.9258Z" fill="black"/>
<path d="M40.7774 54V45H47V46.9688H43.18V48.5156H46.6197V50.4844H43.18V54H40.7774Z" fill="black"/>
<path d="M57 43.6935V13C57 7.47715 52.5228 3 47 3H18C12.4772 3 8 7.47715 8 13V51C8 56.5228 12.4771 61 18 61H39.8962" stroke="#9B9B9B" stroke-width="4" stroke-linecap="round"/>
<path d="M40.375 61H18C12.4772 61 8 56.5228 8 51V47C8 41.4772 12.4772 37 18 37H57V44" stroke="black" stroke-width="4" stroke-linecap="round"/>
</svg>
