<svg width="48" height="48" viewBox="0 0 24 24" fill="#080808" xmlns="http://www.w3.org/2000/svg">
<g clip-path="url(#clip0_4418_7562)">
<path d="M13.4 14.6002C13.21 14.6002 13.02 14.5302 12.87 14.3802L11.47 12.9802C11.33 12.8402 11.25 12.6502 11.25 12.4502V9.66016C11.25 9.25016 11.59 8.91016 12 8.91016C12.41 8.91016 12.75 9.25016 12.75 9.66016V12.1402L13.93 13.3202C14.22 13.6102 14.22 14.0902 13.93 14.3802C13.78 14.5302 13.59 14.6002 13.4 14.6002Z"/>
<path d="M12 19.25C10.41 19.25 8.91 18.75 7.65 17.8C7.62 17.78 7.6 17.77 7.57 17.75C5.78 16.36 4.75 14.26 4.75 12C4.75 8 8 4.75 12 4.75C16 4.75 19.25 8 19.25 12C19.25 14.25 18.23 16.33 16.46 17.72C16.43 17.74 16.41 17.76 16.38 17.78C15.11 18.74 13.6 19.25 12 19.25ZM8.43 16.51C8.46 16.53 8.48 16.54 8.5 16.56C10.53 18.13 13.51 18.12 15.53 16.54C15.55 16.52 15.58 16.5 15.6 16.49C16.97 15.39 17.75 13.76 17.75 12C17.75 8.83 15.17 6.25 12 6.25C8.83 6.25 6.25 8.83 6.25 12C6.25 13.77 7.04 15.41 8.43 16.51Z"/>
<path d="M12.5501 22.7496H11.4601C9.50008 22.7496 8.30008 21.7796 7.79008 19.7696L7.29008 17.2996C7.25008 17.0796 7.30008 16.8496 7.45008 16.6796C7.60008 16.5096 7.81008 16.4096 8.03008 16.4096H8.04008C8.21008 16.4096 8.37008 16.4596 8.50008 16.5696C10.5301 18.1396 13.5101 18.1296 15.5301 16.5496C15.8401 16.3096 16.3301 16.3596 16.5801 16.6696C16.7201 16.8396 16.7801 17.0696 16.7401 17.2896L16.2301 19.7596C15.7001 21.7796 14.5001 22.7496 12.5501 22.7496ZM9.09008 18.6396L9.25008 19.4396C9.63008 20.9396 10.4101 21.2496 11.4601 21.2496H12.5501C13.5901 21.2496 14.3701 20.9396 14.7601 19.4196L14.9201 18.6396C13.1101 19.4396 10.9101 19.4496 9.09008 18.6396Z"/>
<path d="M16 7.62C15.83 7.62 15.66 7.56 15.53 7.46C13.51 5.88 10.53 5.87 8.50001 7.44C8.19001 7.68 7.70001 7.63 7.46001 7.33C7.32001 7.16 7.26001 6.93 7.30001 6.71L7.79001 4.27C8.30001 2.22 9.50001 1.25 11.46 1.25H12.55C14.5 1.25 15.7 2.22 16.21 4.21L16.73 6.72C16.78 6.94 16.72 7.17 16.58 7.34C16.44 7.52 16.23 7.62 16 7.62ZM12 4.75C13.03 4.75 14.01 4.96 14.92 5.36L14.75 4.55C14.36 3.07 13.59 2.75 12.55 2.75H11.46C10.41 2.75 9.63001 3.06 9.25001 4.6L9.09001 5.36C10 4.96 10.98 4.75 12 4.75Z"/>
</g>
<defs>
<clipPath id="clip0_4418_7562">
<rect width="24" height="24" fill="white"/>
</clipPath>
</defs>
</svg>